<?xml version="1.0" encoding="UTF-8" standalone="no"?>
<!-- Created with Inkscape (http://www.inkscape.org/) -->

<svg
   width="48"
   height="48"
   viewBox="0 0 12.7 12.7"
   version="1.1"
   id="svg5"
   inkscape:version="1.2.2 (732a01da63, 2022-12-09, custom)"
   sodipodi:docname="documentation.svg"
   xmlns:inkscape="http://www.inkscape.org/namespaces/inkscape"
   xmlns:sodipodi="http://sodipodi.sourceforge.net/DTD/sodipodi-0.dtd"
   xmlns="http://www.w3.org/2000/svg"
   xmlns:svg="http://www.w3.org/2000/svg">
  <sodipodi:namedview
     id="namedview7"
     pagecolor="#ffffff"
     bordercolor="#666666"
     borderopacity="1.0"
     inkscape:showpageshadow="2"
     inkscape:pageopacity="0.0"
     inkscape:pagecheckerboard="0"
     inkscape:deskcolor="#d1d1d1"
     inkscape:document-units="mm"
     showgrid="false"
     inkscape:zoom="5.0668324"
     inkscape:cx="46.577424"
     inkscape:cy="12.532485"
     inkscape:window-width="1846"
     inkscape:window-height="1016"
     inkscape:window-x="74"
     inkscape:window-y="27"
     inkscape:window-maximized="1"
     inkscape:current-layer="text6742" />
  <defs
     id="defs2" />
  <g
     inkscape:label="Layer 1"
     inkscape:groupmode="layer"
     id="layer1">
    <rect
       style="fill:#ff5555;fill-opacity:1;stroke:none;stroke-width:0.264583"
       id="rect1107"
       width="13.03106"
       height="4.3115706"
       x="-28.631121"
       y="3.2897911"
       rx="1.6700265"
       ry="2.1557853" />
    <g
       aria-label="&lt;/&gt;"
       id="text4472"
       style="font-size:6.46479px;line-height:1.25;stroke-width:0.16162">
      <path
         d="m -10.881941,7.8142746 c 0,-0.038789 -0.02586,-0.077578 -0.08404,-0.1099014 l -2.295001,-1.2735636 2.295001,-1.2735636 c 0.05818,-0.032324 0.08404,-0.064648 0.08404,-0.1163662 0,-0.064648 -0.06465,-0.1422254 -0.129296,-0.1422254 -0.01939,0 -0.04525,0.01293 -0.07758,0.032324 l -2.702282,1.4998312 2.695817,1.4998312 c 0.03232,0.019394 0.06465,0.032324 0.08404,0.032324 0.06465,0 0.129296,-0.077578 0.129296,-0.1486902 z"
         style="font-family:'Tlwg Mono';-inkscape-font-specification:'Tlwg Mono';fill:#3f67eb;fill-opacity:1"
         id="path4524" />
      <path
         d="m -7.2616685,4.1552036 c 0.025859,-0.051718 0.032324,-0.077578 0.032324,-0.1034367 0,-0.064648 -0.064648,-0.122831 -0.1292958,-0.122831 -0.064648,0 -0.096972,0.025859 -0.1422254,0.1163662 L -9.614852,8.5447959 c -0.025859,0.045253 -0.032324,0.077578 -0.032324,0.1034366 0,0.064648 0.064648,0.122831 0.1292958,0.122831 0.064648,0 0.096972,-0.025859 0.1422254,-0.1163662 z"
         style="font-family:'Tlwg Mono';-inkscape-font-specification:'Tlwg Mono';fill:#c1cef9;fill-opacity:1"
         id="path4526" />
      <path
         d="m -5.9945796,5.0408798 c 0,0.045254 0.025859,0.084042 0.084042,0.1163662 l 2.295,1.2735636 -2.295,1.2735636 c -0.058183,0.032324 -0.084042,0.064648 -0.084042,0.1099014 0,0.071113 0.058183,0.1486902 0.1292958,0.1486902 0.019394,0 0.045253,-0.01293 0.077577,-0.032324 L -3.0854243,6.4308096 -5.7812415,4.9309783 c -0.032324,-0.019394 -0.064648,-0.032324 -0.084042,-0.032324 -0.058183,0 -0.1292958,0.077578 -0.1292961,0.1422255 z"
         style="font-family:'Tlwg Mono';-inkscape-font-specification:'Tlwg Mono';fill:#3f67eb;fill-opacity:1"
         id="path4528" />
      <g
         aria-label="&lt;/&gt;"
         id="text6742"
         style="font-size:7.79409px;stroke-width:0.0314923">
        <path
           d="M 4.8562597,8.7152478 0.52916981,6.915148 V 5.7886585 L 4.8562597,3.9923643 v 1.3510263 l -2.6297442,1.0123183 2.6297442,1.016124 z"
           style="font-family:'Arial Black';-inkscape-font-specification:'Arial Black, ';fill:#3f67eb;fill-opacity:1"
           id="path7472" />
        <path
           d="M 6.6639709,3.4671766 H 7.4555582 L 6.0550577,9.2328241 H 5.2710818 Z"
           style="font-family:'Arial Black';-inkscape-font-specification:'Arial Black, ';fill:#c1cef9;fill-opacity:1"
           id="path7474" />
        <path
           d="M 7.8437403,8.7152478 12.17083,6.915148 V 5.7886585 L 7.8437403,3.9923643 v 1.3510263 l 2.6297437,1.0123183 -2.6297437,1.016124 z"
           style="font-family:'Arial Black';-inkscape-font-specification:'Arial Black, ';fill:#3f67eb;fill-opacity:1"
           id="path7476" />
      </g>
    </g>
  </g>
</svg>
